<?xml version="1.0" standalone="no"?>
<!DOCTYPE svg PUBLIC "-//W3C//DTD SVG 20010904//EN"
 "http://www.w3.org/TR/2001/REC-SVG-20010904/DTD/svg10.dtd">
<svg version="1.0" xmlns="http://www.w3.org/2000/svg"
 width="260.000000pt" height="260.000000pt" viewBox="0 0 260.000000 260.000000"
 preserveAspectRatio="xMidYMid meet">
<metadata>
Created by potrace 1.11, written by Peter Selinger 2001-2013
</metadata>
<g transform="translate(0.000000,260.000000) scale(0.100000,-0.100000)"
fill="#000000" stroke="none">
<path d="M1104 2586 c-61 -69 -25 -139 70 -139 25 0 47 -3 47 -6 1 -3 2 -39 3
-78 2 -64 0 -73 -16 -74 -19 -2 -37 -5 -40 -9 -2 -1 -14 -3 -28 -5 -76 -9
-104 -15 -109 -23 -3 -5 -14 -8 -23 -6 -10 1 -18 -3 -18 -9 0 -5 -3 -8 -6 -4
-3 3 -30 -5 -60 -18 -46 -21 -54 -22 -54 -8 0 9 -3 13 -7 10 -3 -4 -18 17 -32
46 -14 28 -29 55 -34 58 -6 4 -1 12 10 18 11 5 23 7 27 4 3 -3 6 -1 6 5 0 6 9
13 19 17 22 7 42 54 36 85 -5 24 -30 52 -39 43 -3 -4 -6 -1 -6 6 0 18 -51 8
-99 -20 -23 -12 -41 -27 -41 -31 0 -5 -4 -7 -8 -4 -5 3 -32 -10 -60 -28 -28
-19 -52 -32 -54 -30 -2 2 -26 -14 -53 -34 -40 -30 -50 -43 -49 -66 2 -40 24
-76 48 -78 12 0 28 -2 36 -2 8 -1 17 1 20 5 3 4 12 9 20 11 8 2 21 9 28 16 18
16 32 15 32 -3 0 -8 4 -15 8 -15 5 0 14 -16 22 -35 8 -19 17 -35 21 -35 15 0
18 -32 4 -46 -8 -9 -15 -13 -15 -11 0 8 -57 -43 -126 -112 -35 -36 -64 -68
-64 -73 0 -4 -9 -17 -20 -28 -19 -19 -20 -19 -84 18 -36 20 -66 40 -66 44 0 4
8 14 18 24 9 10 16 18 14 18 -2 1 1 14 7 29 9 23 8 36 -5 63 -9 19 -21 34 -28
35 -6 1 -23 2 -38 3 -16 2 -28 -1 -28 -6 0 -4 -6 -8 -12 -8 -7 0 -28 -28 -47
-63 -19 -34 -41 -68 -48 -75 -7 -8 -11 -18 -8 -23 4 -5 1 -9 -4 -9 -6 0 -11
-5 -11 -10 0 -6 -11 -28 -25 -50 -14 -22 -22 -40 -18 -40 5 0 1 -5 -7 -10 -20
-13 -21 -63 -1 -89 23 -31 79 -35 109 -8 12 11 22 24 22 29 0 5 9 18 19 29
l19 21 51 -28 c28 -16 51 -33 51 -37 0 -5 5 -5 10 -2 13 8 13 -17 -2 -52 -6
-15 -12 -31 -13 -35 -2 -5 -4 -11 -5 -15 -1 -5 -2 -11 -1 -15 0 -5 -4 -8 -10
-8 -6 0 -9 -7 -6 -15 4 -8 2 -17 -4 -20 -5 -4 -7 -10 -4 -15 3 -5 1 -11 -4
-15 -6 -3 -8 -12 -4 -20 3 -8 1 -15 -3 -15 -5 0 -10 -12 -11 -27 -1 -16 -3
-41 -6 -58 -3 -16 -5 -35 -6 -41 -1 -6 -31 -10 -78 -9 l-78 1 -2 54 c-3 65
-30 97 -80 95 -34 -2 -66 -22 -57 -36 3 -5 0 -9 -5 -9 -7 0 -11 -60 -11 -179
0 -173 1 -179 24 -203 17 -19 31 -25 55 -23 34 3 88 50 68 59 -7 3 -8 5 -1 5
5 1 9 15 8 33 -3 45 3 56 33 50 19 -4 24 -2 18 8 -6 9 -3 10 13 1 27 -14 55
-14 46 0 -5 8 -1 8 13 0 11 -6 23 -7 27 -4 6 6 9 -11 9 -49 0 -10 3 -18 7 -18
5 0 7 -7 6 -17 -2 -9 4 -41 11 -72 8 -31 15 -62 15 -68 1 -7 6 -13 11 -13 6 0
8 -3 4 -6 -3 -4 0 -19 8 -34 8 -15 11 -30 8 -34 -4 -3 0 -6 7 -6 7 0 10 -3 7
-7 -4 -3 -2 -12 4 -19 7 -9 3 -16 -18 -27 -68 -35 -82 -44 -78 -49 3 -3 -4 -5
-16 -4 -12 0 -27 10 -33 21 -6 10 -16 25 -23 32 -6 7 -13 17 -15 22 -1 5 -17
12 -34 15 -42 9 -88 -28 -90 -73 -1 -17 3 -31 8 -31 5 0 6 -4 3 -10 -3 -5 -2
-10 4 -10 5 0 13 -10 17 -22 4 -13 9 -25 13 -28 6 -5 38 -63 75 -135 12 -22
27 -44 34 -48 7 -5 10 -12 7 -17 -3 -5 4 -11 15 -15 11 -3 20 -10 20 -14 0 -4
14 -7 30 -7 17 0 30 3 30 8 0 4 6 8 13 8 33 0 41 87 11 117 -8 8 -12 19 -9 24
4 5 2 9 -4 9 -20 0 1 28 25 34 13 4 24 10 24 15 0 5 13 12 30 16 16 4 30 11
30 16 0 5 5 9 10 9 6 0 10 -7 10 -16 0 -8 4 -12 10 -9 5 3 10 2 10 -3 0 -15
133 -162 146 -162 3 0 12 -6 20 -14 7 -8 26 -24 40 -35 26 -21 26 -22 9 -41
-10 -11 -16 -23 -12 -26 3 -3 -3 -14 -14 -25 -10 -10 -19 -25 -19 -33 0 -8 -7
-16 -15 -20 -8 -3 -15 -1 -15 4 0 6 -6 10 -13 10 -8 0 -27 7 -44 15 -24 12
-37 13 -62 4 -17 -6 -31 -17 -31 -25 0 -8 -4 -14 -9 -14 -15 0 -2 -74 14 -83
8 -4 20 -14 28 -22 8 -8 18 -11 21 -7 4 3 10 2 14 -3 10 -15 90 -65 103 -65 6
0 30 -15 52 -33 23 -17 41 -31 42 -29 0 2 13 -1 28 -7 37 -14 57 -14 57 1 0 6
3 9 6 5 11 -11 33 20 39 53 5 26 0 36 -30 66 -19 19 -41 34 -48 34 -7 0 -13
11 -13 24 0 14 3 23 6 21 4 -2 13 11 20 30 8 19 18 35 22 35 5 0 7 4 4 9 -3 5
1 11 9 15 15 5 26 3 63 -11 9 -3 20 -7 25 -8 4 -2 9 -4 12 -5 3 -1 8 -3 13 -5
4 -1 14 -4 22 -8 15 -5 63 -17 77 -18 5 0 13 -4 18 -8 6 -4 25 -6 43 -6 17 1
32 -2 32 -7 0 -4 3 -7 8 -7 44 7 48 1 47 -76 0 -41 -2 -76 -5 -76 -10 -3 -46
-7 -82 -10 -21 -2 -38 -7 -38 -12 0 -5 -7 -16 -16 -24 -21 -21 -12 -69 18 -94
19 -17 40 -19 200 -19 177 0 179 0 204 25 32 32 29 76 -8 112 -19 18 -28 22
-28 12 0 -8 -3 -10 -8 -4 -4 6 -25 10 -46 10 -39 0 -39 0 -39 38 1 20 2 57 2
81 1 40 3 44 22 41 12 -3 27 -1 32 2 6 4 25 8 41 9 33 3 52 7 104 23 17 5 32
8 32 5 0 -2 11 3 25 12 14 9 25 14 25 10 0 -3 15 3 34 13 l33 19 38 -66 39
-65 -23 -16 c-62 -42 -82 -69 -76 -102 6 -32 28 -63 39 -52 3 4 6 1 6 -6 0
-12 36 -11 58 2 6 5 12 5 12 0 0 -4 5 -1 10 7 5 8 13 15 17 15 4 1 19 7 33 15
14 8 27 15 30 15 5 1 62 35 146 87 68 43 80 109 26 140 -32 18 -64 15 -108
-11 -30 -18 -33 -18 -46 -3 -8 9 -20 28 -26 42 -7 14 -19 36 -27 50 -10 17
-11 26 -3 29 13 4 19 10 122 107 43 41 76 74 72 74 -3 0 2 9 11 19 10 11 24
27 31 36 12 14 16 14 30 2 10 -7 32 -19 50 -27 17 -7 32 -16 32 -21 0 -5 7 -9
15 -9 19 0 19 0 -11 -58 -25 -49 -25 -51 -9 -86 10 -20 25 -37 34 -37 9 -1 26
-3 38 -4 12 -1 24 4 27 12 3 8 10 12 15 9 5 -3 14 8 21 24 7 17 17 30 23 30 6
0 7 3 4 7 -4 3 0 15 10 25 9 10 12 18 8 18 -4 0 0 9 9 19 20 22 57 86 86 146
22 47 17 91 -13 106 -30 17 -77 22 -77 9 0 -6 -4 -8 -10 -5 -5 3 -16 -7 -22
-22 -24 -52 -42 -65 -72 -52 -14 7 -26 16 -26 21 0 4 -3 7 -7 6 -5 -2 -22 6
-40 16 -24 15 -29 23 -22 35 12 21 33 73 34 86 0 6 6 20 13 31 6 12 9 24 6 27
-3 3 -2 12 2 19 11 17 15 36 17 75 1 18 5 33 8 33 4 0 6 8 6 17 0 49 0 49 76
47 39 -1 75 -2 80 -3 4 0 6 -21 4 -46 -2 -25 0 -45 5 -45 4 0 8 -8 8 -18 0
-23 35 -40 73 -36 32 3 59 22 51 35 -3 5 0 9 5 9 7 0 11 60 11 180 l0 179 -26
25 c-16 14 -33 22 -42 18 -11 -4 -13 -1 -7 7 6 11 3 11 -16 0 -35 -18 -69 -57
-56 -63 7 -3 8 -5 1 -5 -5 -1 -9 -15 -8 -33 1 -17 -2 -41 -6 -52 -5 -12 -9
-16 -9 -10 -1 6 -24 10 -58 9 -75 -2 -91 6 -88 45 1 16 -1 30 -5 30 -4 0 -6
10 -6 23 1 12 -2 27 -6 33 -5 7 -8 16 -7 20 1 5 1 11 -1 14 -1 3 -3 16 -6 30
-2 14 -7 32 -11 40 -3 8 -7 17 -8 20 -4 12 -17 47 -26 68 -14 35 -12 38 41 63
28 13 50 27 50 30 0 20 36 -2 59 -36 31 -46 72 -63 107 -45 29 16 48 65 33 91
-5 10 -7 19 -4 19 4 0 -3 12 -14 26 -11 14 -30 46 -42 72 -13 26 -26 49 -29
52 -4 3 -17 25 -30 49 -12 25 -29 51 -36 59 -8 7 -14 18 -14 23 0 6 -4 7 -10
4 -5 -3 -10 -2 -10 2 0 5 -13 9 -30 9 -16 1 -27 -2 -24 -7 3 -5 -1 -6 -8 -4
-30 12 -58 -96 -30 -114 28 -19 33 -72 6 -73 -5 -1 -25 -11 -44 -23 -49 -30
-70 -37 -70 -22 0 7 -9 18 -20 25 -11 7 -20 17 -20 23 0 13 -121 132 -172 169
-36 26 -36 27 -21 57 8 17 24 41 36 54 12 13 21 25 19 27 -2 1 -2 7 0 12 4 12
58 -10 58 -23 0 -5 5 -5 10 -2 5 3 10 2 10 -2 0 -8 26 -9 65 -4 13 1 41 51 40
71 0 8 -4 21 -8 28 -5 6 -5 12 0 12 4 0 -12 13 -36 29 -25 17 -48 28 -53 25
-4 -3 -8 -1 -8 4 0 5 -12 15 -27 23 -15 8 -36 21 -46 29 -10 8 -21 15 -25 15
-4 0 -23 10 -43 23 -20 12 -41 22 -48 22 -6 0 -11 4 -11 8 0 4 -13 9 -30 10
-18 1 -30 -3 -30 -10 0 -6 -3 -9 -6 -5 -14 14 -39 -28 -38 -65 2 -41 18 -61
64 -79 25 -9 40 -49 19 -49 -6 0 -7 -4 -4 -10 3 -5 2 -10 -3 -10 -5 0 -12 -8
-16 -17 -16 -48 -47 -79 -59 -58 -4 8 -14 12 -22 9 -8 -4 -15 -1 -15 5 0 6 -8
11 -18 11 -10 0 -23 5 -30 12 -7 7 -12 9 -12 6 0 -4 -15 -2 -32 3 -18 6 -46
13 -63 16 -46 8 -60 11 -60 13 0 1 -15 3 -33 5 -18 1 -35 5 -39 9 -5 5 -7 64
-4 134 1 15 10 18 53 18 43 1 55 5 75 28 12 15 23 36 23 46 0 26 -21 70 -31
65 -4 -3 -10 -1 -14 5 -10 16 -367 13 -381 -4z"/>
</g>
</svg>
